<mxfile host="app.diagrams.net" modified="2022-12-24T11:05:35.069Z" agent="5.0 (Windows NT 10.0; Win64; x64) AppleWebKit/537.36 (KHTML, like Gecko) Chrome/108.0.0.0 Safari/537.36 Edg/108.0.1462.54" version="20.7.4" etag="YEm0NFDzYG-m1RBFNyR0" type="github">
  <diagram id="mugASRHkQr_JS3PYJLnQ" name="Page-1">
    <mxGraphModel dx="1044" dy="581" grid="1" gridSize="10" guides="1" tooltips="1" connect="1" arrows="1" fold="1" page="1" pageScale="1" pageWidth="850" pageHeight="1100" math="0" shadow="0">
      <root>
        <mxCell id="0" />
        <mxCell id="1" parent="0" />
        <mxCell id="PA3C4dDVQf3SM_-wa-DI-1" value="Match" style="swimlane;childLayout=stackLayout;horizontal=1;startSize=30;horizontalStack=0;rounded=1;fontSize=15;fontStyle=1;strokeWidth=2;resizeParent=0;resizeLast=1;shadow=0;dashed=0;align=center;fillColor=#6666FF;" vertex="1" parent="1">
          <mxGeometry x="305" y="90" width="170" height="160" as="geometry" />
        </mxCell>
        <mxCell id="PA3C4dDVQf3SM_-wa-DI-2" value="Match_Id&#xa;Match_no&#xa;Team1_id&#xa;Team2_id&#xa;Venue_id&#xa;DateTime&#xa;Result&#xa;Ticket_id&#xa;" style="align=left;strokeColor=none;fillColor=none;spacingLeft=4;fontSize=12;verticalAlign=top;resizable=0;rotatable=0;part=1;" vertex="1" parent="PA3C4dDVQf3SM_-wa-DI-1">
          <mxGeometry y="30" width="170" height="130" as="geometry" />
        </mxCell>
        <mxCell id="PA3C4dDVQf3SM_-wa-DI-4" value="Venue" style="swimlane;childLayout=stackLayout;horizontal=1;startSize=30;horizontalStack=0;rounded=1;fontSize=15;fontStyle=1;strokeWidth=2;resizeParent=0;resizeLast=1;shadow=0;dashed=0;align=center;fillColor=#6666FF;" vertex="1" parent="1">
          <mxGeometry x="600" y="60" width="160" height="130" as="geometry" />
        </mxCell>
        <mxCell id="PA3C4dDVQf3SM_-wa-DI-5" value="Venue_id&#xa;Venue_name&#xa;Location&#xa;Seat_capacity&#xa;Seat_type&#xa;Seat_price" style="align=left;strokeColor=none;fillColor=none;spacingLeft=4;fontSize=12;verticalAlign=top;resizable=0;rotatable=0;part=1;strokeWidth=2;" vertex="1" parent="PA3C4dDVQf3SM_-wa-DI-4">
          <mxGeometry y="30" width="160" height="100" as="geometry" />
        </mxCell>
        <mxCell id="PA3C4dDVQf3SM_-wa-DI-7" value="Ticket" style="swimlane;childLayout=stackLayout;horizontal=1;startSize=30;horizontalStack=0;rounded=1;fontSize=15;fontStyle=1;strokeWidth=2;resizeParent=0;resizeLast=1;shadow=0;dashed=0;align=center;fillColor=#6666FF;" vertex="1" parent="1">
          <mxGeometry x="310" y="310" width="160" height="120" as="geometry" />
        </mxCell>
        <mxCell id="PA3C4dDVQf3SM_-wa-DI-8" value="Ticket_id&#xa;Seat_no.&#xa;Base_price&#xa;Total_Price&#xa;Txn_id" style="align=left;strokeColor=none;fillColor=none;spacingLeft=4;fontSize=12;verticalAlign=top;resizable=0;rotatable=0;part=1;strokeWidth=2;" vertex="1" parent="PA3C4dDVQf3SM_-wa-DI-7">
          <mxGeometry y="30" width="160" height="90" as="geometry" />
        </mxCell>
        <mxCell id="PA3C4dDVQf3SM_-wa-DI-11" value="Team" style="swimlane;childLayout=stackLayout;horizontal=1;startSize=30;horizontalStack=0;rounded=1;fontSize=15;fontStyle=1;strokeWidth=2;resizeParent=0;resizeLast=1;shadow=0;dashed=0;align=center;fillColor=#6666FF;" vertex="1" parent="1">
          <mxGeometry x="30" y="50" width="160" height="150" as="geometry" />
        </mxCell>
        <mxCell id="PA3C4dDVQf3SM_-wa-DI-12" value="Team_id&#xa;Team_Name&#xa;Owner_name&#xa;Total_match_played&#xa;Matches_win&#xa;Matches_lost&#xa;Tie_Match&#xa;&#xa;&#xa;" style="align=left;strokeColor=none;fillColor=none;spacingLeft=4;fontSize=12;verticalAlign=top;resizable=0;rotatable=0;part=1;strokeWidth=2;" vertex="1" parent="PA3C4dDVQf3SM_-wa-DI-11">
          <mxGeometry y="30" width="160" height="120" as="geometry" />
        </mxCell>
        <mxCell id="PA3C4dDVQf3SM_-wa-DI-14" value="Captain" style="swimlane;childLayout=stackLayout;horizontal=1;startSize=30;horizontalStack=0;rounded=1;fontSize=15;fontStyle=1;strokeWidth=2;resizeParent=0;resizeLast=1;shadow=0;dashed=0;align=center;fillColor=#6666FF;" vertex="1" parent="1">
          <mxGeometry x="50" y="240" width="160" height="120" as="geometry" />
        </mxCell>
        <mxCell id="PA3C4dDVQf3SM_-wa-DI-15" value="Captain_id&#xa;Captain_name&#xa;Vice_captain_id&#xa;Vice_captain_name" style="align=left;strokeColor=none;fillColor=none;spacingLeft=4;fontSize=12;verticalAlign=top;resizable=0;rotatable=0;part=1;strokeWidth=2;" vertex="1" parent="PA3C4dDVQf3SM_-wa-DI-14">
          <mxGeometry y="30" width="160" height="90" as="geometry" />
        </mxCell>
        <mxCell id="PA3C4dDVQf3SM_-wa-DI-16" value="Person" style="swimlane;childLayout=stackLayout;horizontal=1;startSize=30;horizontalStack=0;rounded=1;fontSize=15;fontStyle=1;strokeWidth=2;resizeParent=0;resizeLast=1;shadow=0;dashed=0;align=center;fillColor=#6666FF;" vertex="1" parent="1">
          <mxGeometry x="600" y="340" width="160" height="120" as="geometry" />
        </mxCell>
        <mxCell id="PA3C4dDVQf3SM_-wa-DI-29" value="" style="endArrow=none;html=1;rounded=0;fontSize=15;exitX=0.997;exitY=0.138;exitDx=0;exitDy=0;exitPerimeter=0;" edge="1" parent="PA3C4dDVQf3SM_-wa-DI-16" source="PA3C4dDVQf3SM_-wa-DI-7">
          <mxGeometry relative="1" as="geometry">
            <mxPoint x="-110" as="sourcePoint" />
            <mxPoint x="50" as="targetPoint" />
          </mxGeometry>
        </mxCell>
        <mxCell id="PA3C4dDVQf3SM_-wa-DI-17" value="Person_id&#xa;Name&#xa;Contact_no&#xa;Address&#xa;Ticket_id" style="align=left;strokeColor=none;fillColor=none;spacingLeft=4;fontSize=12;verticalAlign=top;resizable=0;rotatable=0;part=1;strokeWidth=2;" vertex="1" parent="PA3C4dDVQf3SM_-wa-DI-16">
          <mxGeometry y="30" width="160" height="90" as="geometry" />
        </mxCell>
        <mxCell id="PA3C4dDVQf3SM_-wa-DI-19" value="Player" style="swimlane;childLayout=stackLayout;horizontal=1;startSize=30;horizontalStack=0;rounded=1;fontSize=15;fontStyle=1;strokeWidth=2;resizeParent=0;resizeLast=1;shadow=0;dashed=0;align=center;fillColor=#6666FF;" vertex="1" parent="1">
          <mxGeometry x="20" y="420" width="170" height="150" as="geometry" />
        </mxCell>
        <mxCell id="PA3C4dDVQf3SM_-wa-DI-20" value="Player_id&#xa;Player_name&#xa;Age&#xa;Player_type&#xa;Score&#xa;Wickets&#xa;Team_id&#xa;&#xa;&#xa;&#xa;" style="align=left;strokeColor=none;fillColor=none;spacingLeft=4;fontSize=12;verticalAlign=top;resizable=0;rotatable=0;part=1;strokeWidth=2;" vertex="1" parent="PA3C4dDVQf3SM_-wa-DI-19">
          <mxGeometry y="30" width="170" height="120" as="geometry" />
        </mxCell>
        <mxCell id="PA3C4dDVQf3SM_-wa-DI-21" value="" style="line;strokeWidth=1;rotatable=0;dashed=0;labelPosition=right;align=left;verticalAlign=middle;spacingTop=0;spacingLeft=6;points=[];portConstraint=eastwest;fontSize=15;fillColor=#6666FF;" vertex="1" parent="1">
          <mxGeometry x="190" y="110" width="110" height="10" as="geometry" />
        </mxCell>
        <mxCell id="PA3C4dDVQf3SM_-wa-DI-22" value="" style="endArrow=none;html=1;rounded=0;fontSize=15;entryX=0.401;entryY=-0.025;entryDx=0;entryDy=0;entryPerimeter=0;" edge="1" parent="1" source="PA3C4dDVQf3SM_-wa-DI-12" target="PA3C4dDVQf3SM_-wa-DI-14">
          <mxGeometry relative="1" as="geometry">
            <mxPoint x="90" y="200" as="sourcePoint" />
            <mxPoint x="250" y="200" as="targetPoint" />
          </mxGeometry>
        </mxCell>
        <mxCell id="PA3C4dDVQf3SM_-wa-DI-26" value="" style="endArrow=none;html=1;rounded=0;fontSize=15;exitX=0.059;exitY=0;exitDx=0;exitDy=0;exitPerimeter=0;startArrow=ERmany;startFill=0;" edge="1" parent="1" source="PA3C4dDVQf3SM_-wa-DI-19">
          <mxGeometry relative="1" as="geometry">
            <mxPoint x="-100" y="169.5" as="sourcePoint" />
            <mxPoint x="30" y="169.5" as="targetPoint" />
          </mxGeometry>
        </mxCell>
        <mxCell id="PA3C4dDVQf3SM_-wa-DI-27" value="" style="endArrow=none;html=1;rounded=0;fontSize=15;entryX=0.5;entryY=0;entryDx=0;entryDy=0;exitX=0.5;exitY=1;exitDx=0;exitDy=0;" edge="1" parent="1" source="PA3C4dDVQf3SM_-wa-DI-2" target="PA3C4dDVQf3SM_-wa-DI-7">
          <mxGeometry relative="1" as="geometry">
            <mxPoint x="330" y="240" as="sourcePoint" />
            <mxPoint x="490" y="240" as="targetPoint" />
          </mxGeometry>
        </mxCell>
        <mxCell id="PA3C4dDVQf3SM_-wa-DI-28" value="" style="endArrow=none;html=1;rounded=0;fontSize=15;entryX=-0.005;entryY=0.374;entryDx=0;entryDy=0;entryPerimeter=0;" edge="1" parent="1" target="PA3C4dDVQf3SM_-wa-DI-5">
          <mxGeometry relative="1" as="geometry">
            <mxPoint x="475" y="169.5" as="sourcePoint" />
            <mxPoint x="635" y="169.5" as="targetPoint" />
          </mxGeometry>
        </mxCell>
        <mxCell id="PA3C4dDVQf3SM_-wa-DI-31" value="IPL Tournament Datawarehouse" style="text;strokeColor=none;fillColor=none;html=1;fontSize=24;fontStyle=1;verticalAlign=middle;align=center;strokeWidth=2;" vertex="1" parent="1">
          <mxGeometry x="360" y="10" width="100" height="40" as="geometry" />
        </mxCell>
      </root>
    </mxGraphModel>
  </diagram>
</mxfile>
